<svg xmlns="http://www.w3.org/2000/svg" xmlns:xlink="http://www.w3.org/1999/xlink" width="80" height="56" viewBox="0 0 80 56">
<defs>
    <style>
      .cls-1 {
        stroke-width: 0.2px;
        fill-rule: evenodd;
        fill: url(#linear-gradient);
        stroke: url(#linear-gradient);
      }
    </style>
    <linearGradient id="linear-gradient" x1="900.056" y1="63" x2="891.944" y2="17" gradientUnits="userSpaceOnUse">
      <stop offset="-0.1" stop-color="#1d62f0"/>
      <stop offset="1.1" stop-color="#1ad6fd"/>
    </linearGradient>
  </defs>
  <path id="icon-apps" class="cls-1" d="M918.09,52.56H914.3a1.239,1.239,0,0,0,.283.684c0.855,1.513,1.735,3.011,2.576,4.532a3.392,3.392,0,0,1-.034,3.617,3.382,3.382,0,0,1-5.891-.216c-4.619-8.033-10.121-17.538-10.121-17.538a42.084,42.084,0,0,1-2.059-4.213,9.906,9.906,0,0,1-.367-4.785c0.277-2.017,2.443-5.08,2.443-5.08s5.64,9.984,8.918,15.77a0.762,0.762,0,0,0,.774.444c2.394-.018,4.788-0.009,7.182-0.009,2.321,0,3.313.736,3.994,2.964C921.948,51.293,920.655,52.56,918.09,52.56Zm-28.346-6.794s4.148,0.046,8.113-.014a5.955,5.955,0,0,1,4.722,3.325,4.737,4.737,0,0,1,.248,2.912,0.747,0.747,0,0,1-.818.584c-9.682-.016-18.931,0-28.613-0.018-2.12,0-3.418-1.553-3.4-3.965,0.78-2.173,1.71-2.822,4.048-2.822,2.371,0,4.742-.016,7.113.012a1.115,1.115,0,0,0,1.153-.649c1.841-3.294,3.716-6.568,5.595-9.84q1.982-3.453,4.009-6.879a0.879,0.879,0,0,0,.01-1.026q-1.5-2.547-2.954-5.124a3.387,3.387,0,1,1,5.852-3.393c0.416,0.705.823,1.417,1.284,2.21,0.434-.745.816-1.409,1.206-2.069a3.386,3.386,0,1,1,5.849,3.393C902.343,23.74,889.744,45.766,889.744,45.766ZM876.976,54.6c-0.261.468,1.058-1.891,4.337-.424a8.221,8.221,0,0,1,2.251,1.64,0.908,0.908,0,0,1,.12.993,50.206,50.206,0,0,1-3.037,4.619,3.172,3.172,0,0,1-2.621,1.539c-2.853-.024-4.369-2.59-3.182-4.853C875.483,56.9,876.308,55.8,876.976,54.6Z" transform="translate(-856 -12)"/>
</svg>
