<svg xmlns="http://www.w3.org/2000/svg" xmlns:xlink="http://www.w3.org/1999/xlink" width="80" height="56" viewBox="0 0 80 56">
  <defs>
    <style>
      .cls-1, .cls-2 {
        fill-rule: evenodd;
      }

      .cls-1 {
        fill: url(#linear-gradient);
      }

      .cls-2 {
        fill: url(#linear-gradient-2);
      }
    </style>
    <linearGradient id="linear-gradient" x1="40.516" y1="52" x2="40.516" y2="4" gradientUnits="userSpaceOnUse">
      <stop offset="-0.25" stop-color="#dbddde"/>
      <stop offset="1.25" stop-color="#898c90"/>
    </linearGradient>
    <linearGradient id="linear-gradient-2" x1="47.506" y1="41" x2="32.494" y2="15" gradientUnits="userSpaceOnUse">
      <stop offset="0" stop-color="#fd2b69"/>
      <stop offset="1" stop-color="#fd5d3f"/>
    </linearGradient>
  </defs>
  <path id="arrows" class="cls-1" d="M65.068,32.5a0.834,0.834,0,0,0-.815.657A24.414,24.414,0,0,1,22.091,43.641a0.82,0.82,0,0,1,.122-1.18l1.657-1.309a0.847,0.847,0,0,1,1.162.116,20.61,20.61,0,0,0,35.2-7.7,0.835,0.835,0,0,0-.8-1.071H58.547a0.828,0.828,0,0,1-.76-1.177l3.807-8.088a0.843,0.843,0,0,1,1.52,0l3.807,8.088a0.828,0.828,0,0,1-.76,1.177H65.068ZM40.518,7.75A20.474,20.474,0,0,0,20.8,22.425a0.835,0.835,0,0,0,.8,1.071h0.885a0.828,0.828,0,0,1,.76,1.177l-3.812,8.08a0.843,0.843,0,0,1-1.52,0l-3.812-8.08a0.828,0.828,0,0,1,.76-1.177h1.1a0.834,0.834,0,0,0,.815-0.657A24.414,24.414,0,0,1,58.945,12.359a0.82,0.82,0,0,1-.122,1.18l-1.657,1.309A0.847,0.847,0,0,1,56,14.733,20.562,20.562,0,0,0,40.518,7.75Z"/>
  <path id="flash-rounded" class="cls-2" d="M38.95,30.77H32.6a0.637,0.637,0,0,1-.51-0.964l8.249-14.5a0.6,0.6,0,0,1,1.1.408l-0.992,8.469a0.622,0.622,0,0,0,.592.714H47.4a0.637,0.637,0,0,1,.512.961L39.59,40.689a0.6,0.6,0,0,1-1.1-.406l1.055-8.8A0.622,0.622,0,0,0,38.95,30.77Z"/>
</svg>
